<svg width="90" height="90" viewBox="0 0 90 90" fill="none" xmlns="http://www.w3.org/2000/svg">
<path d="M45 0L83.9711 22.5V67.5L45 90L6.02886 67.5V22.5L45 0Z" fill="#EC008C"/>
<g clip-path="url(#clip0)">
<path d="M21.1026 29.6421C21.0894 29.8414 21.1026 30.0406 21.1421 30.2001V31.5419L21.1685 31.7544C21.3794 32.5914 22.0383 33.7605 22.8159 34.2919C23.6726 34.8765 24.8456 34.903 25.979 34.9429C26.9147 34.9827 27.8768 35.0093 28.2854 35.3149C28.3513 35.3813 28.3645 35.8463 28.3777 36.0456C28.3908 36.3777 28.404 36.7497 28.4831 37.1217C28.7467 38.3838 28.3513 39.6591 27.9691 40.8814C27.8637 41.2135 27.7582 41.5324 27.666 41.8778L27.6001 42.1435C27.4419 42.7147 27.2047 43.565 27.4156 44.4152C27.5474 44.9599 27.6791 45.5578 27.8109 46.1556C27.9955 46.9793 28.1931 47.8295 28.3908 48.5735C28.4304 48.7329 28.4436 48.8924 28.4436 49.0784C28.4436 49.3573 28.4567 49.7028 28.6017 50.0747C28.7071 50.3404 28.8258 50.6327 28.9444 50.9383C29.1684 51.483 29.4057 52.041 29.5374 52.5192L29.5506 53.5688C29.8142 54.7511 29.7483 56.5978 29.6824 58.2186C29.6561 58.7766 29.6429 59.3213 29.6297 59.8128L29.5243 60.0785L29.1816 60.2246C28.8521 60.3442 28.4172 60.5036 28.1009 60.8889C27.9164 61.128 27.8241 61.3672 27.745 61.5665L27.6396 61.8189C27.521 61.9783 27.4683 62.1643 27.4815 62.3503C27.521 62.9747 27.6791 63.2537 27.9427 63.6655C28.0482 63.8515 28.2327 63.9844 28.4436 64.0242C28.8258 64.1172 30.1569 64.3032 31.2376 64.3032C31.9098 64.3032 32.3447 64.2368 32.6478 64.0774C34.0844 63.5194 33.9657 62.2174 33.8867 61.4336C33.8471 61.0483 33.8208 60.6896 33.8867 60.3841C33.9526 60.0785 33.9657 59.7065 33.9789 59.308C33.9921 58.9626 34.0053 58.6039 34.0712 58.3116C34.2821 57.4215 34.6115 56.3587 34.9278 55.3357C35.1651 57.1292 35.3232 59.3213 35.1519 60.1715L35.0728 62.1776C34.9937 62.337 34.8356 62.4566 34.5193 62.6691L34.2162 62.8817C33.9657 63.0677 33.8208 63.3068 33.6099 63.6389C33.4386 63.7851 33.3331 64.1305 33.3331 64.3563C33.3331 64.7018 33.3331 65.1136 33.5835 65.5387C33.8076 65.8443 34.6247 66.3093 35.0596 66.3093C35.2046 66.3093 35.4946 66.3358 35.8372 66.3491C36.3644 66.389 37.0102 66.4288 37.4715 66.4288C37.8405 66.4288 38.0777 66.4023 38.2491 66.3358L38.4204 66.2429C38.6313 66.11 38.8553 65.9506 39.0794 65.7911C39.2375 65.6716 39.3561 65.4989 39.3957 65.2996C39.5802 64.4361 39.7252 63.4397 39.4616 62.6293C39.4089 62.4698 39.343 62.2971 39.2507 62.0979C39.1057 61.7524 38.9212 61.314 38.9608 61.0218L39.1848 59.3877C39.567 56.5314 39.9492 53.8477 41.0431 51.855C41.4649 51.8151 41.8866 51.7885 42.3083 51.7487C43.2968 51.669 44.1996 51.6465 45.109 51.5402L45.1551 43.658L21.1026 29.6421Z" fill="white"/>
<path d="M67.8534 65.277C67.9193 65.2371 67.9852 65.1973 68.0379 65.1441L68.7628 64.4135C68.921 64.254 69 64.0415 69 63.8156C68.9868 63.1646 68.8419 62.6864 68.7233 62.2613C68.6705 62.0487 68.6046 61.8494 68.5783 61.7697V59.6972L68.5519 59.4979C68.4729 59.1658 68.3411 58.754 68.2224 58.3953L68.0906 57.9701C67.9984 57.6247 67.972 57.3192 67.9457 57.0269C67.9193 56.8276 67.9061 56.6283 67.8666 56.429V65.277H67.8534ZM58.4433 24.8501C58.3642 24.8501 58.2851 24.8634 58.2061 24.8767L59.7481 25.7801C59.6822 25.6339 59.6031 25.4878 59.524 25.3549C59.4186 25.1689 59.1286 24.9962 58.9177 24.9431C58.7991 24.89 58.6278 24.8501 58.4433 24.8501Z" fill="#EC008C"/>
<path d="M31.2141 24C30.6605 24 30.0411 24.0399 29.3294 24.1196C29.1449 24.1461 28.9604 24.1461 28.7759 24.1594C28.2487 24.186 27.6952 24.2258 27.2075 24.5048C26.3377 25.0362 25.5601 26.0725 25.1779 26.6438L24.9802 27.0689C24.6771 27.2947 24.229 27.5604 23.9258 27.6667C23.6754 27.7464 23.4514 27.7863 23.2273 27.8261C22.7792 27.8926 22.2784 27.9856 21.7644 28.2911C21.2768 28.5834 21.0395 29.1679 21 29.6861L45.1052 43.7153V51.5402C45.8696 51.4472 46.6077 51.3277 47.3325 51.1683C47.7806 51.0753 48.2024 50.9424 48.6241 50.8096C48.9668 50.7033 50.4561 50.411 51.0492 50.3711C51.2337 50.5439 51.5236 51.0753 51.7081 51.4074C52.0508 52.0318 52.4066 52.6695 52.8943 53.0415L53.2897 53.3603C53.5664 53.5862 53.8432 53.7987 54.1331 53.9847C54.3967 54.1309 54.6603 54.2239 54.9239 54.3169C55.148 54.3966 55.3457 54.463 55.4116 54.5161C55.5302 54.6888 55.6488 54.8748 55.7938 55.0475L55.9914 55.2335C56.1628 55.3531 56.3473 55.4328 56.5318 55.5125L56.9008 55.7118C57.2962 56.3229 57.4016 57.4787 57.4675 58.7143L57.204 59.0597L57.0458 59.1261C56.769 59.2324 56.4 59.3785 56.1628 59.7107C55.9915 59.8966 55.9256 60.1092 55.9256 60.1889C55.7674 60.3483 55.6751 60.5742 55.6883 60.8C55.7015 61.1189 55.7015 61.451 55.9519 61.7964L56.0046 61.9293C56.1101 62.2614 56.4132 62.474 56.7427 62.4873C56.914 62.4873 57.1249 62.5005 57.3753 62.5271C57.8234 62.5537 58.3506 62.5803 58.8646 62.5803C59.9057 62.5803 60.5252 62.4474 60.881 62.1551C61.9881 61.3713 61.7113 59.6974 61.4346 58.0766C61.395 57.864 61.3555 57.6382 61.3291 57.4256L61.6191 57.6913C61.7772 57.8374 61.9486 57.9836 62.1594 58.1297C63.5433 59.1527 64.5581 59.9099 64.624 61.8629L63.7937 62.7131C63.6487 62.8592 63.5696 63.0585 63.5565 63.2711C63.5433 63.9221 63.7146 64.4535 64.0836 64.8255C64.624 65.3834 65.4148 65.4499 65.9683 65.4499C66.2714 65.4499 66.5877 65.4366 66.9172 65.3967L67.5103 65.3702C67.6421 65.3702 67.7475 65.3303 67.853 65.2772V56.4159C67.7871 56.0572 67.6816 55.6985 67.4576 55.3132C67.1544 54.7951 66.6668 54.5028 66.2451 54.2504C66.0737 54.1441 65.9024 54.0512 65.7574 53.9316C65.1512 53.44 64.0177 51.9388 63.5565 51.1151C63.0029 50.1054 62.6734 48.6042 62.3439 47.1694C62.2122 46.5583 62.0672 45.9737 61.9617 45.5885L61.8299 43.9677C61.6191 43.2237 61.2764 42.5063 60.9469 41.8288C60.6174 41.1512 60.3011 40.5002 60.143 39.8758C60.0112 39.3046 60.2089 38.7997 60.4197 38.2683C60.5252 38.0292 60.6043 37.8033 60.6702 37.5775C60.7756 37.2055 60.8283 36.7272 60.8678 36.2888C60.8942 36.0364 60.9206 35.8106 60.9733 35.4519V33.3661C61.2237 30.7622 60.7361 27.773 59.774 25.7536L58.232 24.8503C58.087 24.8768 57.9684 24.9167 57.9025 24.9698C56.8877 25.3949 56.7559 27.0423 56.9799 28.0653C57.5203 30.4433 57.204 33.8311 56.3078 35.6378C54.858 35.6777 53.3424 35.7973 51.8663 35.9168C50.153 36.0497 48.4001 36.1825 46.7395 36.2091L46.2123 36.2224C42.8515 36.2224 40.5056 35.6777 38.8713 34.5485C38.7264 34.4289 38.4232 33.9373 38.2914 33.6185V32.9409L38.2519 32.7151C38.186 32.476 38.0542 32.2634 37.9488 32.0774L37.8433 31.8914V31.1474L37.817 30.9349C37.6588 30.337 37.3689 29.7392 37.1185 29.1945C36.9471 28.9022 36.8022 28.5967 36.7363 28.4904L36.5649 27.4143L36.499 27.1885C35.7083 25.5677 34.6539 24 31.2141 24Z" fill="#EC008C"/>
<path d="M29.4221 24.93C28.7631 25.0097 28.0646 24.9433 27.6297 25.209C26.9707 25.6076 26.2986 26.4445 25.8505 27.0955C25.7319 27.2815 25.7582 27.4941 25.5869 27.6269C25.2179 27.9192 24.6116 28.2912 24.1503 28.4506C23.4386 28.6632 22.7929 28.6233 22.1866 28.9687C21.8308 29.1946 21.7517 29.819 21.8308 30.2441V31.5859C22.0284 32.3166 22.5952 33.2731 23.1619 33.6584C24.5062 34.5618 27.4057 33.778 28.6973 34.7345C29.2376 35.1995 28.9608 36.156 29.1585 36.993C29.5539 38.8264 28.7763 40.5402 28.3414 42.1211C28.2228 42.6259 27.8933 43.4895 28.091 44.2733C28.4073 45.5752 28.7236 47.1296 29.0663 48.4183C29.2113 48.963 29.0663 49.3748 29.2508 49.8531C29.5407 50.6236 30.0284 51.6333 30.2261 52.4703V53.4534C30.6215 55.2336 30.3447 58.1298 30.3315 60.1226C30.1734 60.282 30.1338 60.6008 29.9625 60.747C29.6066 61.0791 28.9345 61.0791 28.6314 61.4776C28.4205 61.7433 28.3809 62.1021 28.1833 62.381C28.2228 62.8726 28.3546 62.9789 28.5259 63.2711C29.0399 63.3907 31.6626 63.7228 32.203 63.3641C33.6132 62.8593 32.7038 61.4776 32.9938 60.2155C33.1255 59.6576 33.0201 58.8339 33.1783 58.1431C33.4287 57.0802 33.8504 55.765 34.1535 54.8085C34.404 54.0778 34.3249 53.387 34.6939 52.829L34.8652 52.55H35.0629C35.5506 53.6527 36.1436 58.7542 35.8537 60.2288C35.8273 60.9462 35.801 61.6636 35.7746 62.381C35.5637 62.9789 35.0761 63.2047 34.6016 63.5501C34.3776 63.7228 34.2722 64.0683 34.0613 64.2543C34.0613 64.5598 34.0349 64.8787 34.1667 65.0779L34.9707 65.5163C35.432 65.5031 37.5407 65.7422 37.9229 65.5961C38.1206 65.4632 38.3314 65.3171 38.5423 65.1709C38.6609 64.5731 38.8586 63.6166 38.6214 62.9124C38.4632 62.4209 37.9756 61.6636 38.0942 60.9329C38.6346 57.2662 38.9113 53.6527 40.4929 51.1152C42.7993 50.9026 45.1189 50.8229 47.1485 50.3712C47.5702 50.2782 47.9656 50.1586 48.361 50.0391C48.8355 49.8797 51.0628 49.4412 51.3 49.5874C52.0381 49.8797 52.6048 51.8193 53.356 52.3906C53.7382 52.6696 54.1204 53.0415 54.5158 53.2807C54.9903 53.5597 55.4911 53.5995 55.9524 53.9184C56.0842 54.1176 56.2291 54.3435 56.3873 54.5428C56.7959 54.7952 57.2967 54.8749 57.5471 55.2602C58.1138 56.1503 58.1929 57.6515 58.2588 58.9667C58.0743 59.1926 57.9029 59.4317 57.7184 59.6709C57.3889 59.8967 56.9672 59.9233 56.7431 60.2288C56.5982 60.3883 56.6245 60.6008 56.4664 60.7602C56.4795 61.1057 56.4927 61.2119 56.6509 61.3846L56.7431 61.6636C57.6262 61.6902 59.8008 61.9559 60.407 61.4776C61.3955 60.7868 60.4597 58.1298 60.407 56.6153L60.6706 56.2566C61.5009 56.323 62.0281 57.0271 62.5553 57.4257C64.0577 58.5283 65.4416 59.5247 65.402 62.195C65.0462 62.5405 64.6903 62.9124 64.3345 63.2711C64.295 64.9982 66.0083 64.5997 67.4449 64.5332C67.6953 64.2941 67.9325 64.0284 68.1697 63.8026C68.1434 62.9656 67.8798 62.474 67.7348 61.7301V59.6576C67.6162 59.1926 67.3921 58.5283 67.2735 58.1298C67.0099 57.16 67.1813 56.4293 66.7332 55.6986C66.43 55.1672 65.7052 54.928 65.2175 54.5295C64.4927 53.9316 63.2801 52.3241 62.8189 51.4739C61.9622 49.9195 61.6195 47.4617 61.1187 45.6151C61.0792 45.1368 61.0528 44.6453 61.0133 44.1537C60.6311 42.7588 59.669 41.4303 59.3263 40.0353C59.0627 38.9194 59.6558 38.0558 59.8667 37.3251C60.0248 36.7406 60.0248 35.9169 60.1303 35.4253V33.2997C60.3807 30.5895 59.8008 27.5206 58.7991 25.7404C58.5487 25.674 58.3774 25.6076 58.1533 25.7404C57.6657 25.9397 57.5339 27.1088 57.7052 27.9059C58.3378 30.6825 57.8897 34.6282 56.73 36.4616C53.501 36.5147 49.9689 36.993 46.6872 37.0329C43.4846 37.086 40.5192 36.7273 38.3183 35.1995C37.9888 34.9471 37.5407 34.1765 37.4221 33.7514V32.941C37.3298 32.6487 37.0662 32.3299 36.9871 32.0376V31.1475C36.7631 30.2973 36.1964 29.3673 35.9064 28.6233C35.8537 28.2513 35.7878 27.9059 35.7351 27.5472C34.8784 25.7139 33.8109 24.3986 29.4221 24.93Z" fill="white"/>
<path d="M39.8996 52.7628C38.3576 50.1855 37.4746 46.8243 37.4746 43.1311C37.4878 39.451 38.3576 36.0766 39.8996 33.5126C41.4284 30.9751 43.7612 29.0753 46.6607 29.062C49.547 29.062 51.8929 30.9751 53.4086 33.5126C54.9506 36.0766 55.8336 39.451 55.8468 43.1311C55.8468 46.8243 54.9637 50.1855 53.4086 52.7628C51.8798 55.3136 49.5338 57.1868 46.6607 57.2134C43.7744 57.1868 41.4284 55.3136 39.8996 52.7628ZM50.43 50.9295C51.5898 49.043 52.3674 46.2531 52.3674 43.1311C52.3806 40.0223 51.5898 37.2191 50.43 35.3459C49.2702 33.4328 47.8864 32.5693 46.6607 32.5826C45.435 32.5693 44.0512 33.4328 42.8782 35.3459C41.7316 37.2324 40.954 40.0356 40.954 43.1311C40.954 46.2531 41.7316 49.0297 42.8782 50.9162C44.0512 52.8425 45.435 53.6928 46.6607 53.6928C47.8864 53.7061 49.2702 52.8558 50.43 50.9295Z" fill="white"/>
<path d="M39.9003 52.7624L40.6779 52.2841C39.2282 49.8795 38.3847 46.6778 38.3715 43.1306C38.3715 39.5968 39.2282 36.3817 40.6779 33.9771C41.3896 32.7947 42.2858 31.7851 43.2874 31.0809C44.3023 30.3768 45.4225 29.9783 46.6614 29.965C47.9002 29.965 49.0205 30.3768 50.0353 31.0809C51.0501 31.7851 51.9332 32.7947 52.6448 33.9771C54.0946 36.3817 54.9513 39.5835 54.9513 43.1173C54.9513 46.6645 54.0946 49.8662 52.6448 52.2709C51.9332 53.4532 51.0501 54.4629 50.0353 55.167C49.0205 55.8711 47.9002 56.2697 46.6614 56.283C45.4093 56.2697 44.2891 55.8711 43.2874 55.167C42.2858 54.4629 41.3896 53.4532 40.6779 52.2709L39.9003 52.7624L39.1227 53.2407C39.9399 54.6091 40.981 55.8047 42.2463 56.6948C43.5115 57.5717 45.0008 58.1296 46.6482 58.1429C48.2956 58.1296 49.7849 57.5849 51.0501 56.6948C52.3154 55.818 53.3565 54.6091 54.1737 53.2407C55.8211 50.4906 56.7305 46.9833 56.7437 43.1439C56.7437 39.3178 55.8211 35.7839 54.1737 33.0472C53.3565 31.6921 52.3154 30.4831 51.0501 29.593C49.7849 28.7162 48.2824 28.1582 46.6482 28.1582C45.0008 28.1582 43.4983 28.7162 42.2463 29.593C40.981 30.4831 39.9399 31.6788 39.1227 33.0472V33.0604C37.4753 35.7972 36.5659 39.3311 36.5527 43.1572C36.5659 46.9966 37.4753 50.5039 39.1227 53.254L39.9003 52.7624Z" fill="#EC008C"/>
<path d="M46.7267 37.0329C43.511 37.0728 40.5588 36.7273 38.3578 35.1995C38.0283 34.9471 37.5802 34.1766 37.4616 33.7515V32.9411C37.3693 32.6488 37.1057 32.3299 37.0135 32.0377V31.1476C36.7894 30.2973 36.2227 29.3673 35.946 28.6101C35.8801 28.2381 35.8273 27.8927 35.7746 27.534C34.8784 25.7139 33.8109 24.3987 29.4221 24.9301C28.7631 25.0098 28.0646 24.9434 27.6297 25.2091C26.9707 25.6209 26.2854 26.4446 25.8505 27.0956C25.7319 27.2683 25.7582 27.4941 25.5869 27.627C25.2179 27.9192 24.6116 28.2912 24.1503 28.4507C23.4386 28.6632 22.7929 28.6234 22.1866 28.9688C21.8308 29.1946 21.7517 29.819 21.8308 30.2442V31.586C22.0153 32.3167 22.5952 33.2732 23.1619 33.6585C24.493 34.5619 27.3925 33.778 28.6973 34.7346C29.2376 35.1995 28.9608 36.1561 29.1585 36.993C29.5539 38.8264 28.7763 40.5402 28.3414 42.1211C28.2228 42.626 27.8933 43.4895 28.0778 44.2733C28.3941 45.5753 28.7236 47.1297 29.0531 48.4316C29.1981 48.9763 29.0531 49.3881 29.2244 49.8664C29.5144 50.637 30.002 51.6466 30.2129 52.4836V53.4667C30.6083 55.2469 30.3315 58.1431 30.3183 60.1359C30.1602 60.2953 30.1206 60.6142 29.9493 60.7603C29.5935 61.0924 28.9213 61.0924 28.6182 61.491C28.4073 61.7567 28.3678 62.1287 28.1701 62.3944C28.2096 62.8859 28.3414 62.9922 28.5259 63.2845C29.0399 63.404 31.6626 63.7362 32.203 63.3775C33.6132 62.8726 32.717 61.491 33.0069 60.2289C33.1387 59.6709 33.0333 58.8472 33.1914 58.1564C33.4419 57.0936 33.8636 55.7783 34.1667 54.8218C34.4171 54.0911 34.3381 53.4003 34.7071 52.8556L34.8784 52.5766H35.0761C35.5637 53.6793 36.1568 58.7808 35.8801 60.2555C35.8537 60.9729 35.8142 61.6903 35.7878 62.4209C35.5769 63.0188 35.0893 63.2446 34.6148 63.59C34.3908 63.7627 34.2853 64.1082 34.0613 64.2942C34.0613 64.5997 34.0481 64.9186 34.1667 65.1178L34.9707 65.5563C35.432 65.5563 37.5407 65.7688 37.9229 65.636C38.1206 65.5031 38.3314 65.357 38.5423 65.1975C38.6741 64.613 38.8586 63.6432 38.6214 62.9523C38.4632 62.4608 37.9756 61.7035 38.1074 60.9729C38.6346 57.3194 38.9113 53.6926 40.506 51.1551C42.8125 50.9425 45.132 50.8628 47.1617 50.4111" fill="white"/>
</g>
<defs>
<clipPath id="clip0">
<rect width="48" height="48" fill="white" transform="translate(21 21)"/>
</clipPath>
</defs>
</svg>
