<svg width="90" height="90" viewBox="0 0 90 90" fill="none" xmlns="http://www.w3.org/2000/svg">
<path d="M45 0L83.9711 22.5V67.5L45 90L6.02886 67.5V22.5L45 0Z" fill="#EC008C"/>
<path d="M61.4049 30.6828C59.4352 31.2286 57.0382 33.2457 56.9196 35.3103C56.6941 39.653 54.0599 42.3464 49.2185 42.2396C42.5973 42.0735 38.8951 41.3734 34.303 44.9449C32.6655 46.2026 32.0128 47.2705 30.3279 48.457C29.2955 49.1808 27.397 50.13 26.2222 50.6046C24.9288 51.1267 22.8879 51.3522 21.7606 52.1115C21.2504 52.4319 20.93 52.8828 21.0131 53.5354C22.8404 54.3185 25.3679 53.4167 27.1359 52.9777C28.2039 52.6929 28.987 52.3132 29.9838 51.8505C30.8381 51.4589 32.4282 50.225 33.4605 50.486C32.9859 53.037 33.7097 54.449 35.3828 56.3C36.3321 57.356 36.1897 57.4746 35.4065 58.673C34.7064 59.7409 34.5878 60.1681 34.92 61.5326C35.3353 63.1819 35.893 65.7092 37.0084 67.1211C37.578 67.8568 38.4798 68.1653 39.524 67.8686C40.8649 67.4652 40.3902 66.7889 40.1885 65.6973L39.6427 65.1515C40.853 65.0684 43.3449 65.4481 42.0396 63.3717C41.5294 62.553 39.9631 63.2056 39.4054 62.3869C37.9696 60.2511 41.5175 58.4476 42.36 56.7865C43.2381 55.066 42.5854 53.9151 42.5854 53.2625C42.5854 51.4115 45.2672 52.5743 46.9996 53.1082C48.1506 53.4523 49.2541 53.7727 50.4407 54.0812C51.5087 54.3659 53.3004 54.6626 54.2141 55.3152C55.7448 56.3949 54.8312 57.9611 54.6888 59.5511C54.487 61.58 54.8074 63.0395 55.3651 64.9023C56.4093 65.0566 57.5841 64.487 58.2723 65.5193C58.7825 66.2668 58.2011 67.216 59.3284 67.8212C59.9335 68.1415 61.7965 68.1653 62.4017 67.8212C63.6832 67.1093 62.7102 66.516 62.0101 65.7329C59.2216 62.6123 61.666 55.327 63.3153 50.9725C65.2851 45.8111 62.8526 39.7716 66.2225 35.1323C67.1955 33.7797 68.9161 32.344 68.9991 30.5523C69.0229 29.7929 68.5482 28.5233 67.8481 28.0962C66.6497 27.3961 65.914 28.8793 65.2495 29.5912C64.0629 30.8964 62.995 30.2438 61.4049 30.6828Z" fill="white"/>
<path d="M46.8579 47.2814L34.0664 55.5634L42.3489 42.7844L36.2141 32.1294L46.8579 38.2638L57.5017 32.1294L51.3789 42.7844L59.9817 55.8956L46.8579 47.2814Z" fill="#EC008C"/>
<path d="M46.8581 44.445L37.9348 51.5879L45.0663 42.6534L36.8906 32.6865L46.8581 40.8498L53.2182 36.3054L48.6617 42.6534L56.3034 52.11L46.8581 44.445Z" fill="white"/>
<path d="M45.612 43.9L26.5908 42.6542L45.612 41.4083L46.8579 21L48.1039 41.4083L57.6322 42.6542L48.1039 43.9L46.8579 61.0216L45.612 43.9Z" fill="white"/>
</svg>
