<svg width="35" height="37" viewBox="0 0 35 37" fill="none" xmlns="http://www.w3.org/2000/svg">
<path d="M29.5778 35.7109C30.0989 36.221 27.6239 35.9234 26.3214 35.7109C28.2745 38.2611 24.3697 36.3494 23.0661 35.7113L23.0651 35.7108C22.023 35.2006 20.4599 35.9233 19.8086 36.3485V35.0731C19.8086 34.4354 17.2034 35.7109 16.5521 35.7108C15.9008 35.7107 17.8547 35.0731 18.506 34.4354C19.1573 33.7977 18.506 30.6092 17.2034 30.6092C15.9008 30.6092 9.38784 27.4208 9.38784 24.8701C9.38784 22.8296 8.51944 21.8942 8.08525 21.6815C3.52616 17.8554 2.87487 15.3046 2.22357 15.3046C1.57227 15.3046 1.57227 14.0292 2.22357 13.3915C2.87487 12.7538 2.22357 12.7538 0.920975 12.7538C-0.381619 12.7538 0.920975 10.8408 0.920975 10.2031C0.920975 9.56539 0.920763 9.56539 0.269718 9.56539C-0.381327 9.56539 0.269465 8.29 0.920763 8.29C1.57206 8.29 0.269465 7.01462 0.920763 7.01462C1.57206 7.01462 0.920763 6.37692 0.920763 5.73923C0.920763 5.10154 3.52595 1.27538 4.82855 4.46385C5.87062 7.01462 10.0389 8.92769 11.9928 9.56539C19.8084 11.0958 22.6307 10.2031 23.0649 9.56539C26.1911 2.93331 29.1436 2.12561 30.2291 2.55077C30.012 2.12564 29.7081 1.14785 30.2291 0.637692C30.8804 0 31.5317 0.637692 32.183 0.637692C32.8343 0.637692 32.183 0 32.8343 0C33.4856 0 34.7882 2.55077 34.1369 2.55077C33.4856 2.55077 33.4856 3.18846 34.1369 3.82615C34.7882 4.46385 35.0372 6.32859 34.7882 5.73933C34.5188 5.10154 34.1369 5.73933 33.4856 6.37702C32.8343 7.01471 32.183 7.6524 34.1369 9.56548C35.7 11.0959 34.7882 15.7298 34.1369 17.8555C34.1369 22.957 30.2291 24.8701 28.9265 24.8701C27.6239 24.8701 24.3675 26.1455 24.3675 28.0586C24.3675 29.9716 21.7623 30.6093 21.7623 31.247C21.7623 31.8847 22.4136 32.5224 23.7162 33.7978C25.0188 35.0732 28.9265 35.0732 29.5778 35.7109Z" fill="white"/>
</svg>
