<svg width="95" height="485" viewBox="0 0 95 485" fill="none" xmlns="http://www.w3.org/2000/svg">
<path d="M0 -27V485L47.5 456.843L95 485V-27H0Z" fill="#EC008C"/>
<path d="M25.9102 430.413V392.428H31.4906V419.39H43.9801V393.823H49.5605V419.39H63.6444V391.698H69.2248V430.48H25.9102V430.413ZM63.7109 363.01V363.209C65.9696 364.604 70.022 368.256 70.022 376.491C70.022 383.065 67.0325 388.643 60.1234 388.643H39.3297V378.151H56.4696C62.5815 378.151 63.4451 377.221 63.4451 373.569C63.4451 366.596 57.0675 363.01 52.2843 363.01H39.3297V352.518H69.2913V363.01H63.7109ZM25.9102 346.408V335.916H50.8227L39.3962 321.372V308.822L52.3507 325.423L69.3577 307.294V319.845L54.2773 335.65V335.849H69.3577V346.342H25.9102V346.408ZM65.8367 284.649V284.849C67.7633 286.243 69.9556 289.364 69.9556 296.536C69.9556 304.107 66.9661 309.751 62.1164 309.751C52.1514 309.751 52.085 290.892 51.9521 284.649H49.029C46.106 284.649 43.5815 285.778 43.5815 290.958C43.5815 296.735 46.1724 297.864 48.1654 297.864V308.091C42.4521 308.091 38.6654 302.446 38.6654 291.024C38.6654 279.868 41.8542 274.688 47.9661 274.688H69.2913V284.649H65.8367ZM65.0395 294.013C65.0395 287.239 60.1234 284.649 56.071 284.649C56.071 291.423 57.4661 299.525 61.4521 299.525C63.8437 299.591 65.0395 297.599 65.0395 294.013ZM39.3297 268.712V258.219H44.9102V258.02C42.6514 256.559 38.599 253.039 38.599 244.739C38.599 238.164 41.5885 232.586 48.4311 232.586H69.2248V243.078H52.2178C46.106 243.078 45.2423 244.008 45.2423 247.66C45.2423 254.7 51.6864 258.219 56.4032 258.219H69.3577V268.712H39.3297ZM63.7109 200.843V201.043C65.9696 202.437 70.022 206.156 70.022 214.324C70.022 220.898 67.0325 226.477 60.1234 226.477H39.3297V216.051H56.4696C62.5815 216.051 63.4451 215.121 63.4451 211.402C63.4451 204.429 57.0675 200.843 52.2843 200.843H39.3297V190.351H69.2913V200.843H63.7109ZM42.9171 174.546V174.347C41.3892 172.952 38.6654 169.632 38.6654 162.726C38.6654 151.968 44.7773 147.253 54.3437 147.253C62.7144 147.253 70.022 151.569 70.022 166.179C70.022 177.999 65.571 184.972 56.6025 184.972H25.9102V174.48H42.9171V174.546ZM65.0395 166.245C65.0395 159.538 59.1934 158.409 54.2773 158.409C48.8962 158.409 43.05 159.272 43.05 166.245C43.05 172.554 49.2283 174.546 54.2773 174.546C61.7843 174.546 65.0395 172.886 65.0395 166.245ZM65.8367 120.69V120.889C67.7633 122.284 69.9556 125.405 69.9556 132.577C69.9556 140.147 66.9661 145.792 62.1164 145.792C52.1514 145.792 52.085 126.932 51.9521 120.69H49.029C46.106 120.69 43.5815 121.819 43.5815 126.998C43.5815 132.776 46.1724 133.905 48.1654 133.905V144.065C42.4521 144.065 38.6654 138.42 38.6654 126.998C38.6654 115.842 41.8542 110.662 47.9661 110.662H69.2913V120.623H65.8367V120.69ZM65.0395 130.053C65.0395 123.28 60.1234 120.69 56.071 120.69C56.071 127.463 57.4661 135.565 61.4521 135.565C63.8437 135.631 65.0395 133.639 65.0395 130.053Z" fill="white"/>
<path d="M39.727 105.085V107.011H38.7305V102.096H39.727V104.022H44.8424V105.085H39.727Z" fill="white"/>
<path d="M38.7305 100.503V99.3735L41.5871 97.5139L38.7305 95.6543V94.5253H44.8424V95.5879H40.4577L43.3808 97.5139V97.5803L40.4577 99.4399H44.8424V100.503H38.7305Z" fill="white"/>
</svg>
