<svg width="80" height="460" viewBox="0 0 80 460" fill="none" xmlns="http://www.w3.org/2000/svg">
<path d="M0 0V460L40 434.703L80 460V0H0Z" fill="#EC008C"/>
<path d="M25 344.955V319.063H28.7952V337.441H37.2892V320.013H41.0843V337.441H50.6627V318.565H54.4578V345H25V344.955ZM50.7078 299.01V299.146C52.244 300.096 55 302.586 55 308.199C55 312.68 52.9669 316.483 48.2681 316.483H34.1265V309.33H45.7831C49.9398 309.33 50.5271 308.697 50.5271 306.207C50.5271 301.454 46.1898 299.01 42.9367 299.01H34.1265V291.858H54.503V299.01H50.7078ZM25 287.693V280.541H41.9428L34.1717 270.628V262.073L42.9819 273.389L54.5482 261.032V269.587L44.2922 280.36V280.496H54.5482V287.648H25V287.693ZM52.1536 245.596V245.732C53.4639 246.683 54.9548 248.81 54.9548 253.699C54.9548 258.859 52.9217 262.707 49.6235 262.707C42.8464 262.707 42.8012 249.851 42.7108 245.596H40.7229C38.7349 245.596 37.0181 246.366 37.0181 249.896C37.0181 253.835 38.7801 254.604 40.1355 254.604V261.575C36.25 261.575 33.6747 257.727 33.6747 249.942C33.6747 242.337 35.8434 238.806 40 238.806H54.503V245.596H52.1536ZM51.6114 251.979C51.6114 247.362 48.2681 245.596 45.512 245.596C45.512 250.213 46.4608 255.736 49.1717 255.736C50.7982 255.781 51.6114 254.423 51.6114 251.979ZM34.1265 234.732V227.58H37.9217V227.445C36.3855 226.449 33.6295 224.05 33.6295 218.391C33.6295 213.91 35.6627 210.108 40.3163 210.108H54.4578V217.26H42.8916C38.7349 217.26 38.1476 217.894 38.1476 220.383C38.1476 225.181 42.5301 227.58 45.738 227.58H54.5482V234.732H34.1265ZM50.7078 188.471V188.607C52.244 189.557 55 192.092 55 197.66C55 202.141 52.9669 205.943 48.2681 205.943H34.1265V198.837H45.7831C49.9398 198.837 50.5271 198.203 50.5271 195.668C50.5271 190.915 46.1898 188.471 42.9367 188.471H34.1265V181.319H54.503V188.471H50.7078ZM36.5663 170.545V170.41C35.5271 169.459 33.6747 167.196 33.6747 162.488C33.6747 155.155 37.8313 151.941 44.3374 151.941C50.0301 151.941 55 154.883 55 164.842C55 172.899 51.9729 177.652 45.8735 177.652H25V170.5H36.5663V170.545ZM51.6114 164.887C51.6114 160.315 47.6355 159.546 44.2922 159.546C40.6325 159.546 36.6566 160.134 36.6566 164.887C36.6566 169.188 40.8584 170.545 44.2922 170.545C49.3976 170.545 51.6114 169.414 51.6114 164.887ZM52.1536 133.835V133.971C53.4639 134.921 54.9548 137.049 54.9548 141.937C54.9548 147.098 52.9217 150.945 49.6235 150.945C42.8464 150.945 42.8012 138.09 42.7108 133.835H40.7229C38.7349 133.835 37.0181 134.604 37.0181 138.135C37.0181 142.073 38.7801 142.843 40.1355 142.843V149.768C36.25 149.768 33.6747 145.921 33.6747 138.135C33.6747 130.53 35.8434 127 40 127H54.503V133.79H52.1536V133.835ZM51.6114 140.217C51.6114 135.6 48.2681 133.835 45.512 133.835C45.512 138.452 46.4608 143.974 49.1717 143.974C50.7982 144.02 51.6114 142.662 51.6114 140.217Z" fill="white"/>
<path d="M34.3965 123.198V124.511H33.7188V121.161H34.3965V122.474H37.8754V123.198H34.3965Z" fill="white"/>
<path d="M33.7192 120.074V119.305L35.662 118.037L33.7192 116.77V116H37.8759V116.724H34.8939L36.8819 118.037V118.082L34.8939 119.35H37.8759V120.074H33.7192Z" fill="white"/>
</svg>
