<svg width="40" height="170" viewBox="0 0 40 170" fill="none" xmlns="http://www.w3.org/2000/svg">
<path d="M0 0V170L20 160.651L40 170V0H0Z" fill="#EC008C"/>
<path d="M13 151.875V139.263H14.7622V148.215H18.7063V139.726H20.4685V148.215H24.9161V139.021H26.6783V151.897H13V151.875ZM24.9371 129.495V129.561C25.6503 130.024 26.9301 131.237 26.9301 133.971C26.9301 136.154 25.986 138.006 23.8042 138.006H17.2378V134.523H22.6503C24.5804 134.523 24.8531 134.214 24.8531 133.001C24.8531 130.686 22.8392 129.495 21.3287 129.495H17.2378V126.012H26.6993V129.495H24.9371ZM13 123.983V120.499H20.8671L17.2587 115.67V111.503L21.3496 117.015L26.7203 110.996V115.163L21.958 120.411V120.477H26.7203V123.961H13V123.983ZM25.6084 103.477V103.543C26.2168 104.006 26.9091 105.043 26.9091 107.424C26.9091 109.938 25.965 111.812 24.4336 111.812C21.2867 111.812 21.2657 105.55 21.2238 103.477H20.3007C19.3776 103.477 18.5804 103.852 18.5804 105.572C18.5804 107.49 19.3986 107.865 20.028 107.865V111.261C18.2238 111.261 17.028 109.386 17.028 105.594C17.028 101.89 18.035 100.17 19.965 100.17H26.6993V103.477H25.6084ZM25.3566 106.586C25.3566 104.337 23.8042 103.477 22.5245 103.477C22.5245 105.726 22.965 108.416 24.2238 108.416C24.979 108.438 25.3566 107.777 25.3566 106.586ZM17.2378 98.1853V94.7015H19V94.6354C18.2867 94.1503 17.007 92.9817 17.007 90.2255C17.007 88.0426 17.951 86.1905 20.1119 86.1905H26.6783V89.6743H21.3077C19.3776 89.6743 19.1049 89.983 19.1049 91.1957C19.1049 93.5329 21.1399 94.7015 22.6294 94.7015H26.7203V98.1853H17.2378ZM24.9371 75.6509V75.7171C25.6503 76.1801 26.9301 77.4149 26.9301 80.1269C26.9301 82.3098 25.986 84.162 23.8042 84.162H17.2378V80.7002H22.6503C24.5804 80.7002 24.8531 80.3915 24.8531 79.1568C24.8531 76.8416 22.8392 75.6509 21.3287 75.6509H17.2378V72.1671H26.6993V75.6509H24.9371ZM18.3706 66.9194V66.8533C17.8881 66.3902 17.028 65.2878 17.028 62.9946C17.028 59.4227 18.958 57.8572 21.979 57.8572C24.6224 57.8572 26.9301 59.2904 26.9301 64.1412C26.9301 68.066 25.5245 70.3812 22.6923 70.3812H13V66.8974H18.3706V66.9194ZM25.3566 64.1633C25.3566 61.9363 23.5105 61.5614 21.958 61.5614C20.2587 61.5614 18.4126 61.8481 18.4126 64.1633C18.4126 66.2579 20.3636 66.9194 21.958 66.9194C24.3287 66.9194 25.3566 66.3682 25.3566 64.1633ZM25.6084 49.0374V49.1036C26.2168 49.5666 26.9091 50.6029 26.9091 52.9843C26.9091 55.4979 25.965 57.3721 24.4336 57.3721C21.2867 57.3721 21.2657 51.1101 21.2238 49.0374H20.3007C19.3776 49.0374 18.5804 49.4123 18.5804 51.1321C18.5804 53.0504 19.3986 53.4253 20.028 53.4253V56.7988C18.2238 56.7988 17.028 54.9246 17.028 51.1321C17.028 47.4279 18.035 45.708 19.965 45.708H26.6993V49.0154H25.6084V49.0374ZM25.3566 52.1464C25.3566 49.8974 23.8042 49.0374 22.5245 49.0374C22.5245 51.2865 22.965 53.9765 24.2238 53.9765C24.979 53.9985 25.3566 53.3371 25.3566 52.1464Z" fill="white"/>
<path d="M17.363 43.8566V44.4961H17.0483V42.8643H17.363V43.5038H18.9784V43.8566H17.363Z" fill="white"/>
<path d="M17.0483 42.3347V41.9599L17.9504 41.3424L17.0483 40.725V40.3501H18.9784V40.7029H17.5938L18.5169 41.3424V41.3645L17.5938 41.9819H18.9784V42.3347H17.0483Z" fill="white"/>
</svg>
