<svg width="72" height="200" viewBox="0 0 72 200" fill="none" xmlns="http://www.w3.org/2000/svg">
<path d="M9.18317 125.128C5.9412 122.143 4.76657 116.516 6.31708 111.524C7.67965 107.071 10.8276 104.331 14.5395 104.331C15.4322 104.331 16.3249 104.527 17.2646 104.82C18.5332 105.261 19.8018 105.75 21.1174 106.288C22.1511 106.68 23.1377 107.071 24.1714 107.414C22.9498 104.38 22.8088 100.905 22.7149 98.1649C22.6209 96.3054 22.5739 93.7607 22.1041 92.9288C21.4463 91.8522 20.6945 91.6565 18.1573 91.4607C15.5731 91.2161 12.0023 90.8735 9.18317 87.3991C7.06884 84.8055 2.27636 78.1013 3.16908 71.5929C3.49797 69.4886 4.48466 66.5036 7.67965 64.4972C11.9553 61.7568 27.4604 45.0208 32.2529 26.0338C38.079 3.08295 38.173 2.64253 41.7908 2.64253L42.1667 2.69146L65.9881 5.04037C67.3507 5.13824 68.5253 6.06802 69.2301 7.38928C69.8879 8.75948 69.9819 10.3744 69.3711 11.7935L63.357 26.2784C57.9067 43.7485 49.1675 72.229 48.6506 74.9694C48.1338 77.7588 48.7446 78.3949 50.765 80.597C52.9263 82.9459 56.2152 86.5182 55.6514 93.3692L55.6044 93.7607C55.5575 94.1522 54.8527 98.0181 52.9733 102.324C55.7454 102.618 58.1886 104.38 59.6921 107.316C61.4776 110.741 61.4776 114.95 59.8331 118.326C59.4572 119.109 58.9404 120.137 58.2826 121.311C55.1816 127.184 49.4964 138.047 47.8049 147.492C45.5496 160.46 48.4627 186.151 48.5097 186.396C48.7446 188.549 47.7109 190.653 45.9725 191.436L33.8034 197.015C33.3335 197.211 32.8167 197.357 32.2529 197.357H31.783L21.2114 195.889C19.05 195.596 17.4995 193.492 17.5465 190.996C18.2043 171.275 18.8151 148.96 18.5802 146.318C18.1103 141.62 13.8347 129.435 9.18317 125.128ZM14.3045 101.688C9.60604 101.688 5.6123 105.114 3.92084 110.644C2.04144 116.712 3.54496 123.514 7.49171 127.233C11.4854 130.903 15.6671 142.354 16.09 146.66C16.3249 148.764 15.8081 168.192 14.9623 190.849C14.8214 194.715 17.3116 198.043 20.6005 198.532L31.1722 199.951L31.924 200C32.6757 200 33.4745 199.853 34.2262 199.511L46.4893 193.883C49.2145 192.611 50.8589 189.381 50.4831 186.053C50.3891 184.977 47.617 160.215 49.7783 148.03C51.3758 139.124 56.92 128.505 59.9271 122.828L60.303 122.192C60.8198 121.214 61.2426 120.382 61.5715 119.746C63.6389 115.537 63.5919 110.35 61.4306 106.092C60.162 103.548 58.1886 101.639 55.9803 100.612C57.108 97.2841 57.5778 94.6905 57.6248 94.3479L57.7188 93.7607C58.3766 85.5395 54.2889 81.1353 52.1275 78.7375C50.4831 76.9268 50.4831 76.9268 50.718 75.6056C51.1878 73.4035 58.6115 49.0335 65.3304 27.3061L71.2975 13.0658C72.1902 10.8637 72.1432 8.31906 71.1095 6.21483C70.0759 4.11059 68.1964 2.7404 66.0821 2.54465L42.0727 0.0978713L41.5089 0C36.1996 0 35.9647 0.929778 29.7626 25.2997C25.2521 43.3081 10.2638 59.7015 6.31708 62.1972C3.21606 64.1546 1.19571 67.3844 0.631884 71.2014C-0.401788 78.7864 4.90753 86.3225 7.25678 89.2097C10.6397 93.4182 14.8214 93.8096 17.5935 94.1033C18.2043 94.1522 19.6608 94.299 19.9897 94.4458C20.0367 94.8862 20.1307 97.2351 20.1777 98.2139C20.2247 99.5841 20.2717 101.395 20.5066 103.352C19.4729 102.961 18.5332 102.618 17.6405 102.276C16.5598 101.884 15.4322 101.688 14.3045 101.688ZM30.8903 108.833C47.429 115.929 51.1878 92.8799 51.1878 92.8799C51.9866 83.3863 42.3546 84.2672 44.328 73.9418C45.0798 70.1248 59.2693 24.5168 59.2693 24.5168L65.3773 9.78713L41.5559 7.38928C41.5559 7.38928 41.4619 5.77441 35.9647 27.355C30.6554 48.3484 13.9756 65.7695 9.46508 68.6078C4.10878 72.0333 8.57236 79.9119 12.0023 84.1693C15.7141 88.7203 21.7752 84.5119 25.2991 90.1884C28.2591 95.082 24.2654 105.995 30.8903 108.833ZM11.5324 121.458C7.49171 117.69 9.93493 107.218 15.8081 109.322C21.6812 111.426 27.9772 114.363 33.5215 114.558C33.5215 114.558 40.7572 114.999 48.5097 108.441C53.913 103.841 58.2826 111.133 55.8863 115.978C53.4901 120.822 45.5496 134.377 43.3883 146.513C40.9451 160.411 44.0461 186.983 44.0461 186.983L31.877 192.562L21.3053 191.143C21.3053 191.143 22.8558 150.184 22.433 145.779C21.8691 140.152 17.2176 126.743 11.5324 121.458Z" fill="#EC008C"/>
</svg>
