<svg width="200" height="200" viewBox="0 0 200 200" fill="none" xmlns="http://www.w3.org/2000/svg">
<path d="M73.0897 178.718C71.9443 180.788 67.7115 184.524 65.8191 186.292C64.9228 185.989 63.13 185.635 60.9887 185.181C56.8555 185.484 53.3198 187.453 50.5311 188.311C46.9456 189.422 43.3103 190.23 39.5755 190.634C33.3009 191.34 26.7275 191.138 20.5526 188.412C13.033 185.13 7.20664 178.617 3.22278 170.438C2.57541 169.075 -2.20522 157.664 1.23086 159.431C2.37621 159.987 4.61713 165.238 7.15684 168.267C18.1125 181.142 34.994 185.181 48.1906 178.516C59.196 165.944 57.6024 146.708 62.3831 134.894C71.5957 112.022 90.3697 101.722 95.1005 98.4403C108.994 88.7464 127.569 88.0396 134.939 70.9238C138.027 63.8048 134.391 40.3778 143.953 26.4933C147.14 21.8483 152.866 17.2033 158.145 15.0323C162.278 13.3661 166.611 13.871 170.893 14.2749C172.537 12.9117 174.329 12.0029 176.172 10.8417C179.658 8.62014 182.347 5.5403 185.335 2.71291C187.825 0.339916 190.464 -1.12427 193.402 1.09725C196.788 3.62171 198.98 7.8628 199.826 12.4068C191.56 17.8092 176.023 29.0178 169.947 34.7735C162.627 41.6905 161.133 56.5848 160.137 69.1061L159.191 78.6991C157.597 87.7366 152.119 95.0576 143.255 99.7531C138.873 101.975 134.541 103.035 129.71 103.843C126.722 104.398 123.585 104.398 120.597 104.751C116.414 105.357 111.783 105.408 107.6 106.418C103.168 107.427 98.5366 110.053 98.8852 115.354C99.4827 123.533 107.799 128.279 114.323 130.955C116.663 131.864 119.253 133.177 119.153 136.156C119.053 138.63 117.36 139.942 115.119 139.639C109.642 138.983 105.757 133.934 100.777 132.117C92.8098 129.39 77.8205 128.683 73.5877 137.923C70.4504 144.941 71.1974 156.654 79.8124 158.522C85.0413 159.734 90.9174 158.32 95.3495 155.392C98.2876 153.524 105.06 151.202 105.16 157.109C105.259 161.501 100.678 162.511 97.192 162.814C92.6106 163.218 88.4275 162.057 84.1947 164.632C79.2647 167.762 75.6294 173.821 73.0897 178.718ZM174.578 39.7215C170.794 43.3062 169.001 50.9805 167.955 59.0083L166.959 68.5003C166.86 69.5606 166.81 70.5703 166.71 71.5801C166.611 72.9938 165.814 79.8099 165.814 79.8099C163.971 90.9175 157.049 100.157 146.393 105.711C141.064 108.538 133.794 109.447 127.818 109.8C123.137 110.103 116.364 109.8 114.572 115.405C113.775 118.03 114.472 120.05 116.165 122.069C120.597 127.32 129.262 123.382 132.599 130.753C134.043 133.985 133.694 137.62 131.652 140.75C124.382 151.504 111.833 144.991 104.263 141.154L100.429 139.286C95.0507 136.863 89.2741 136.762 86.0372 139.084C83.8461 140.7 82.8501 143.325 83.0493 147.112C83.1987 148.93 83.7963 150.495 84.6927 151.302C85.34 151.858 86.1368 152.06 87.2324 152.009C88.8259 151.908 89.8717 151.202 91.5648 149.939L95.3495 147.566C100.18 145.244 109.144 144.335 113.625 148.475C115.219 149.889 117.46 153.07 115.418 158.825C113.127 165.137 106.604 168.469 101.475 168.974L96.4948 169.176C93.2082 169.125 89.9713 169.075 87.7304 170.488C84.0453 172.609 81.0574 178.011 79.0157 181.747C77.8205 184.019 75.4302 186.948 72.9901 189.068C76.5258 192.906 77.1731 195.026 83.3481 195.935C89.0251 196.692 95.1503 195.632 100.877 195.935C109.193 196.339 135.985 204.367 135.835 189.472C135.835 186.645 134.839 184.221 133.744 183.06C132.648 181.899 129.212 182.05 129.212 182.05C128.913 181.243 130.358 180.889 130.457 179.173C130.905 171.448 125.975 172.558 119.053 169.933C118.257 161.451 125.577 159.532 132.3 157.109C139.023 154.736 143.903 148.021 145.546 156.654C146.642 162.259 147.887 166.146 148.683 172.659C149.679 180.788 151.074 182.858 155.506 184.019C156.651 184.322 159.739 184.474 161.233 184.272C162.029 188.564 161.332 188.816 163.673 194.521C165.814 199.974 173.184 201.034 179.16 199.116C185.385 197.147 182.745 192.148 179.658 186.897C177.068 182.404 173.134 178.668 172.039 173.669C170.694 167.358 172.736 160.037 173.383 153.978C174.08 147.364 173.184 140.043 174.778 133.48C176.57 126.007 181.799 119.444 183.542 111.87C186.729 98.1374 182.397 83.4956 182.397 69.5101C182.397 65.6224 185.086 50.9805 185.584 47.0424C190.066 41.5391 193.452 35.1774 196.639 28.7653C196.739 28.7148 196.838 28.6643 196.938 28.5129C198.78 26.2913 199.876 23.363 200.324 20.1317C192.008 25.8369 179.807 34.723 174.578 39.7215Z" fill="#EC008C"/>
</svg>
